
<svg width="43" height="44" viewBox="0 0 43 44" fill="none" xmlns="http://www.w3.org/2000/svg">
<path d="M21.8867 38.3659C30.9261 38.3659 38.2539 31.0168 38.2539 21.9513C38.2539 12.8857 30.9261 5.53662 21.8867 5.53662C12.8474 5.53662 5.51953 12.8857 5.51953 21.9513C5.51953 31.0168 12.8474 38.3659 21.8867 38.3659Z" fill="#0386F6"/>
<path d="M3.58351 33.9963C3.48666 33.8992 3.38982 33.7049 3.29297 33.6078L5.52046 32.1509C5.61731 32.248 5.71415 32.3451 5.71415 32.5394L3.58351 33.9963Z" fill="white"/>
<path d="M2.80857 32.7322C2.61488 32.4408 2.51803 32.1494 2.32434 31.858L4.64867 30.5953C4.74552 30.8867 4.93921 31.081 5.03606 31.3724L2.80857 32.7322ZM1.93695 31.081C1.8401 30.7896 1.6464 30.4982 1.54956 30.2068L3.97074 29.2356C4.06759 29.5269 4.16444 29.7212 4.26128 30.0126L1.93695 31.081ZM1.25902 29.3327C1.16217 29.0413 1.06532 28.7499 0.968473 28.4585L3.4865 27.6815C3.58335 27.9729 3.6802 28.1671 3.77705 28.4585L1.25902 29.3327ZM0.677931 27.4872C0.581084 27.1959 0.484237 26.9045 0.484237 26.516L3.09912 25.9332C3.19596 26.2246 3.19596 26.516 3.29281 26.7102L0.677931 27.4872ZM0.290542 25.6418C0.193695 25.3504 0.193695 25.059 0.193695 24.6705L2.80857 24.3791C2.80857 24.6705 2.90542 24.9619 2.90542 25.2533L0.290542 25.6418ZM0.0968473 23.7964C0.0968473 23.505 0.0968473 23.1165 0 22.8251L2.61488 22.728C2.61488 23.0194 2.61488 23.3107 2.71173 23.6021L0.0968473 23.7964ZM2.61488 21.8538H0C0 21.5624 0 21.1739 0 20.8825L2.61488 20.9797C2.71173 21.271 2.61488 21.5624 2.61488 21.8538ZM2.71173 20.2026L0.0968473 20.0084C0.0968473 19.717 0.193695 19.4256 0.193695 19.0371L2.80857 19.4256C2.80857 19.6199 2.80857 19.9113 2.71173 20.2026ZM3.00227 18.5515L0.387389 18.0658C0.484237 17.7744 0.484237 17.4831 0.581084 17.0945L3.19596 17.6773C3.09912 17.9687 3.00227 18.2601 3.00227 18.5515ZM3.29281 16.9003L0.677931 16.2204C0.774779 15.929 0.871626 15.6376 0.968473 15.3462L3.4865 16.1233C3.4865 16.4146 3.38966 16.6089 3.29281 16.9003ZM40.0948 15.929C39.998 15.6376 39.9011 15.4434 39.8043 15.152L42.3223 14.1807C42.4191 14.4721 42.516 14.7635 42.6128 15.0549L40.0948 15.929ZM3.87389 15.3462L1.35586 14.4721C1.45271 14.1807 1.54956 13.8893 1.74325 13.5979L4.16444 14.5692C4.06759 14.7635 3.97074 15.0549 3.87389 15.3462ZM39.5137 14.375C39.4169 14.0836 39.32 13.8893 39.1263 13.5979L41.5475 12.4324C41.6444 12.7238 41.8381 13.0152 41.9349 13.3065L39.5137 14.375ZM4.45498 13.7922L2.03379 12.6266C2.13064 12.3353 2.32434 12.0439 2.42118 11.7525L4.84237 13.0152C4.74552 13.3065 4.55183 13.5008 4.45498 13.7922ZM38.8358 12.8209C38.7389 12.5295 38.5452 12.3353 38.4484 12.141L40.7727 10.7812C40.9664 11.0726 41.0633 11.364 41.257 11.6554L38.8358 12.8209ZM5.22976 12.2381L2.90542 10.9755C3.09912 10.6841 3.19596 10.3927 3.38966 10.1984L5.61715 11.6554C5.5203 11.7525 5.42345 12.0439 5.22976 12.2381ZM37.9642 11.364C37.7705 11.1697 37.6736 10.8783 37.4799 10.6841L39.7074 9.13004C39.9011 9.42142 40.0948 9.61568 40.2885 9.90706L37.9642 11.364ZM6.10138 10.8783L3.97074 9.3243C4.16444 9.03291 4.35813 8.83866 4.55183 8.54727L6.68247 10.1984C6.48877 10.3927 6.29508 10.6841 6.10138 10.8783ZM36.9957 10.0042C36.802 9.80994 36.6083 9.51855 36.5115 9.3243L38.5452 7.57599C38.7389 7.77025 38.9326 8.06163 39.1263 8.35301L36.9957 10.0042ZM7.1667 9.51855L5.13291 7.86737C5.3266 7.67312 5.5203 7.38173 5.71399 7.18748L7.65094 9.03291C7.55409 9.13004 7.3604 9.3243 7.1667 9.51855ZM35.9304 8.74153C35.7367 8.54727 35.543 8.35301 35.3493 8.15876L37.1894 6.2162C37.3831 6.41045 37.6736 6.70184 37.8673 6.89609L35.9304 8.74153ZM8.32887 8.35301L6.39192 6.41045C6.58562 6.2162 6.87616 5.92481 7.06986 5.73056L8.90996 7.67312C8.71626 7.9645 8.52257 8.15876 8.32887 8.35301ZM34.7682 7.57599C34.5745 7.38173 34.3808 7.18748 34.0903 6.99322L35.8335 5.05066C36.1241 5.24492 36.3178 5.43917 36.5115 5.63343L34.7682 7.57599ZM9.49104 7.18748L7.84464 5.14779C8.03833 4.95353 8.32887 4.75928 8.61941 4.56502L10.2658 6.70184C9.97528 6.79897 9.68474 6.99322 9.49104 7.18748ZM33.4123 6.50758C33.2186 6.31332 32.9281 6.2162 32.7344 6.02194L34.284 3.88512C34.5745 4.07938 34.7682 4.27364 35.0587 4.46789L33.4123 6.50758ZM10.8469 6.11907L9.29735 3.98225C9.58789 3.78799 9.78158 3.59374 10.0721 3.49661L11.5248 5.73056C11.3311 5.82768 11.0406 6.02194 10.8469 6.11907ZM32.0565 5.63343C31.8628 5.43917 31.5722 5.34204 31.3785 5.24492L32.7344 2.91384C33.0249 3.1081 33.3155 3.20523 33.5092 3.39948L32.0565 5.63343ZM12.2028 5.24492L10.9438 2.91384C11.2343 2.71959 11.5248 2.62246 11.8154 2.4282L12.9775 4.8564C12.687 4.95353 12.4933 5.14779 12.2028 5.24492ZM30.6038 4.75928C30.3132 4.66215 30.1195 4.46789 29.829 4.37076L30.9912 1.94256C31.2817 2.03969 31.5722 2.23395 31.8628 2.33107L30.6038 4.75928ZM13.7523 4.46789L12.5902 2.03969C12.8807 1.94256 13.1712 1.74831 13.4618 1.65118L14.5271 4.07938C14.2366 4.27363 13.946 4.37076 13.7523 4.46789ZM29.0542 4.07938C28.7637 3.98225 28.57 3.88512 28.2794 3.788L29.1511 1.26266C29.4416 1.35979 29.7321 1.45692 30.0227 1.55405L29.0542 4.07938ZM15.205 3.88512L14.3334 1.35979C14.624 1.26266 14.9145 1.16554 15.205 1.06841L15.9798 3.59374C15.7861 3.69087 15.4956 3.78799 15.205 3.88512ZM27.5046 3.49661C27.2141 3.39948 26.9236 3.30235 26.7299 3.30235L27.4078 0.679897C27.6983 0.777025 27.9889 0.874153 28.2794 0.971281L27.5046 3.49661ZM16.8514 3.30235L16.1735 0.679897C16.4641 0.582768 16.7546 0.48564 17.142 0.48564L17.7231 3.1081C17.3357 3.20523 17.142 3.30235 16.8514 3.30235ZM25.9551 3.1081C25.6645 3.01097 25.374 3.01097 25.1803 2.91384L25.6645 0.291384C25.9551 0.388512 26.2456 0.388512 26.633 0.48564L25.9551 3.1081ZM18.4978 3.01097L18.0136 0.388512C18.3041 0.291384 18.5947 0.291384 18.9821 0.194256L19.3695 2.81671C18.9821 2.91384 18.6915 2.91384 18.4978 3.01097ZM24.3087 2.81671C24.0181 2.81671 23.7276 2.71959 23.4371 2.71959L23.6308 0.0971281C23.9213 0.0971281 24.2118 0.194256 24.5992 0.194256L24.3087 2.81671ZM20.1442 2.71959L19.9506 0.0971281C20.2411 0.0971281 20.6285 0 20.919 0L21.0159 2.62246C20.6285 2.71959 20.3379 2.71959 20.1442 2.71959ZM22.5654 2.71959C22.2749 2.71959 22.0812 2.71959 21.7907 2.71959H21.6938V0.0971281H21.7907C22.0812 0.0971281 22.3717 0.0971281 22.6623 0.0971281L22.5654 2.71959Z" fill="white"/>
<path d="M40.4816 17.0958C40.4816 16.9986 40.3848 16.8044 40.3848 16.7072L42.9028 16.0273C42.9028 16.2216 42.9996 16.3187 42.9996 16.513L40.4816 17.0958Z" fill="white"/>
<path d="M19.0784 11.0746C18.4973 10.9775 18.0131 10.8804 17.432 10.8804C13.9455 10.8804 11.1369 13.6 11.04 17.0966C11.04 17.2908 11.1369 17.3879 11.2337 17.5822C11.3306 17.6793 11.5243 17.7765 11.718 17.7765C12.1054 17.7765 12.3959 17.4851 12.3959 17.0966C12.4928 14.2799 14.7202 12.143 17.432 12.143C17.9162 12.143 18.3036 12.2402 18.7878 12.3373C18.8847 12.3373 18.8847 12.3373 18.9815 12.3373C19.2721 12.3373 19.5626 12.143 19.5626 11.8517C19.5626 11.5603 19.3689 11.1718 19.0784 11.0746Z" fill="white"/>
<path d="M18.4978 13.0151C18.1104 12.9179 17.7231 12.8208 17.3357 12.8208C15.0113 12.8208 13.0744 14.6662 12.9775 17.0944C12.9775 17.483 13.2681 17.7743 13.6555 17.7743C14.0429 17.7743 14.3334 17.483 14.3334 17.0944C14.3334 15.4433 15.6893 14.0835 17.3357 14.0835C17.6262 14.0835 17.8199 14.0835 18.1104 14.1806C18.2073 14.1806 18.2073 14.1806 18.3041 14.1806C18.5947 14.1806 18.8852 13.9863 18.8852 13.695C18.8852 13.5007 18.8852 13.3064 18.7884 13.2093C18.6915 13.1122 18.6915 13.1122 18.4978 13.0151Z" fill="white"/>
<path d="M18.0128 14.9575C17.8191 14.8604 17.6255 14.8604 17.4318 14.8604C16.1727 14.8604 15.1074 15.9288 15.1074 17.1914C15.1074 17.5799 15.398 17.8713 15.7854 17.8713C16.1727 17.8713 16.4633 17.5799 16.4633 17.1914C16.4633 16.6087 16.9475 16.123 17.5286 16.123C17.6255 16.123 17.7223 16.123 17.8191 16.123C17.916 16.123 17.916 16.123 18.0128 16.123C18.3034 16.123 18.5939 15.9288 18.5939 15.6374C18.5939 15.4431 18.4002 15.0546 18.0128 14.9575Z" fill="white"/>
<path d="M22.1786 22.8252C20.3385 22.8252 18.8857 24.2821 18.8857 26.0304V29.6242V37.7829V38.0743C19.8542 38.2686 20.8227 38.3657 21.888 38.3657C23.0502 38.3657 24.2123 38.2686 25.3745 37.9772V37.7829V26.0304V22.8252H22.1786Z" fill="white"/>
<path d="M24.5984 14.7642H24.5016H22.1772V17.2895V21.9516H22.2741H25.4701H26.4385V22.9229V26.1281V37.8806C26.7291 37.7835 26.9228 37.6864 27.2133 37.6864V34.4812V19.7177V17.2895C27.0196 15.8326 25.9543 14.7642 24.5984 14.7642Z" fill="white"/>
<path d="M18.9811 18.9414H18.8842C17.5284 18.9414 16.3662 20.0098 16.3662 21.4667V23.8949V37.3957C16.8504 37.59 17.4315 37.7843 18.0126 37.8814V37.7843V29.6255V26.0318C18.0126 23.9921 19.4653 22.3409 21.4023 21.9524V21.4667V18.9414H18.9811Z" fill="white"/>
<path d="M13.9453 29.8189V32.2471V36.3264C14.4295 36.6178 14.9138 36.8121 15.398 37.0063V27.4878C14.6232 27.9734 13.9453 28.8476 13.9453 29.8189Z" fill="white"/>
<path d="M27.7949 27.5854V37.2983C28.2792 37.104 28.7634 36.9097 29.2476 36.6184V32.3447V29.9165C29.2476 28.8481 28.6665 27.974 27.7949 27.5854Z" fill="white"/>
<path d="M38.1581 36.1332C40.8698 32.6366 42.5162 28.1687 42.5162 23.4094C42.5162 23.0209 42.2256 22.7295 41.8383 22.7295C41.4509 22.7295 41.1603 23.0209 41.1603 23.4094C41.1603 34.0935 32.5409 42.7379 21.8877 42.7379C16.9485 42.7379 12.203 40.8924 8.61962 37.3958C8.32907 37.1044 7.94169 37.2016 7.65114 37.3958C7.3606 37.6872 7.45745 38.0757 7.65114 38.3671C11.525 42.058 16.5611 44.0005 21.7909 44.0005C25.8584 44.0005 29.7323 42.835 32.9283 40.6982L37.9644 41.7666C38.0612 41.7666 38.0612 41.7666 38.1581 41.7666C38.3518 41.7666 38.6423 41.6695 38.7391 41.4752C38.9328 41.281 39.0297 40.9896 38.9328 40.6982L38.1581 36.1332Z" fill="#0386F6"/>
</svg>
